<svg aria-hidden="true" style="position:absolute;width:0;height:0" xmlns="http://www.w3.org/2000/svg" overflow="hidden"><defs><symbol id="icon-in" viewBox="0 0 32 32"><path d="M31.992 32v-.001H32V20.263c0-5.741-1.236-10.164-7.948-10.164-3.227 0-5.392 1.771-6.276 3.449h-.093v-2.913h-6.364v21.364h6.627V21.42c0-2.785.528-5.479 3.977-5.479 3.399 0 3.449 3.179 3.449 5.657v10.401h6.62zM.528 10.636h6.635V32H.528V10.636zM3.843 0C1.722 0 0 1.721 0 3.843s1.721 3.879 3.843 3.879c2.121 0 3.843-1.757 3.843-3.879A3.846 3.846 0 0 0 3.843 0z"/></symbol><symbol id="icon-twitter" viewBox="0 0 32 32"><path d="M32 6.078c-1.19.522-2.458.868-3.78 1.036a6.523 6.523 0 0 0 2.886-3.626 13.11 13.11 0 0 1-4.16 1.588A6.574 6.574 0 0 0 22.154 3c-3.632 0-6.556 2.948-6.556 6.562 0 .52.044 1.02.152 1.496-5.454-.266-10.28-2.88-13.522-6.862a6.605 6.605 0 0 0-.898 3.316 6.57 6.57 0 0 0 2.914 5.452 6.479 6.479 0 0 1-2.964-.808v.072c0 3.188 2.274 5.836 5.256 6.446a6.548 6.548 0 0 1-1.72.216 5.8 5.8 0 0 1-1.242-.112c.85 2.598 3.262 4.508 6.13 4.57a13.182 13.182 0 0 1-8.134 2.798c-.538 0-1.054-.024-1.57-.09A18.469 18.469 0 0 0 10.064 29c12.072 0 18.672-10 18.672-18.668 0-.29-.01-.57-.024-.848A13.087 13.087 0 0 0 32 6.078z"/></symbol><symbol id="icon-instagram" viewBox="0 0 32 32"><path d="M23.338 0H8.662C3.886 0 0 3.886 0 8.662v14.676C0 28.114 3.886 32 8.662 32h14.676C28.114 32 32 28.114 32 23.338V8.662C32 3.886 28.114 0 23.338 0zm6.786 23.338a6.793 6.793 0 0 1-6.786 6.786H8.662a6.793 6.793 0 0 1-6.786-6.786V8.662a6.793 6.793 0 0 1 6.786-6.786h14.676a6.793 6.793 0 0 1 6.786 6.786v14.676z"/><path d="M16 7.25c-4.825 0-8.75 3.925-8.75 8.75s3.925 8.75 8.75 8.75 8.75-3.925 8.75-8.75S20.825 7.25 16 7.25zm0 15.623c-3.79 0-6.874-3.084-6.874-6.874S12.21 9.125 16 9.125c3.79 0 6.874 3.084 6.874 6.874S19.79 22.873 16 22.873zm8.959-18.73c-1.426 0-2.585 1.16-2.585 2.585s1.16 2.586 2.585 2.586c1.426 0 2.586-1.16 2.586-2.586s-1.16-2.585-2.586-2.585zm0 3.295a.71.71 0 1 1 .001-1.42.71.71 0 0 1-.001 1.42z"/></symbol><symbol id="icon-facebook" viewBox="0 0 32 32"><path d="M21.329 5.313h2.921V.225C23.746.156 22.013 0 19.994 0c-4.212 0-7.097 2.649-7.097 7.519V12H8.249v5.688h4.648V32h5.699V17.689h4.46l.708-5.688h-5.169V8.082c.001-1.644.444-2.769 2.735-2.769z"/></symbol><symbol id="icon-happy" viewBox="0 0 32 32"><path fill="var(--color1, #fff)" d="M16.49 6.395c-7.059 0-12.802 5.743-12.802 12.803S9.431 32 16.49 32c7.059 0 12.802-5.743 12.802-12.802S23.549 6.395 16.49 6.395zm0 23.73c-6.025 0-10.927-4.902-10.927-10.927S10.465 8.27 16.49 8.27c6.025 0 10.927 4.902 10.927 10.928S22.515 30.125 16.49 30.125z"/><path fill="var(--color1, #fff)" d="M22.081 21.578a.938.938 0 0 0-1.322.101 5.619 5.619 0 0 1-8.538 0 .938.938 0 0 0-1.423 1.221 7.49 7.49 0 0 0 5.692 2.618 7.49 7.49 0 0 0 5.692-2.618.938.938 0 0 0-.101-1.322zm-10.796-3.855c.518 0 .938-.42.938-.937a.546.546 0 0 1 1.09 0 .937.937 0 1 0 1.874 0c0-1.334-1.086-2.42-2.42-2.42s-2.42 1.086-2.42 2.42c0 .518.42.937.938.937zm8.927-3.358a2.423 2.423 0 0 0-2.42 2.42.938.938 0 1 0 1.874 0 .546.546 0 0 1 1.09 0 .938.938 0 1 0 1.874 0 2.423 2.423 0 0 0-2.42-2.42zm4.002-9.099h1.368a.937.937 0 0 0 0-1.876h-1.368a.937.937 0 0 0 0 1.876zm3.424 3.392c.518 0 .937-.42.937-.938V6.352a.938.938 0 1 0-1.875 0V7.72c0 .518.42.938.938.938zm3.424-5.267h-1.368a.938.938 0 0 0 0 1.876h1.368a.937.937 0 0 0 0-1.876zm-3.424-.148c.518 0 .937-.42.937-.938V.937a.938.938 0 1 0-1.875 0v1.368c0 .518.42.938.938.938zM2.029 4.641H.937a.938.938 0 0 0 0 1.876h1.092a.938.938 0 0 0 0-1.876zm2.892 3.958V7.507a.938.938 0 0 0-1.876 0v1.092a.938.938 0 0 0 1.876 0zm1.017-2.083H7.03a.938.938 0 0 0 0-1.876H5.938a.938.938 0 0 0 0 1.876zM3.984 4.588c.518 0 .938-.42.938-.938V2.558a.938.938 0 0 0-1.876 0V3.65c0 .518.42.938.938.938z"/></symbol><symbol id="icon-coding" viewBox="0 0 32 32"><path fill="var(--color2, #bb3800)" d="M22.5.5h-13a2.006 2.006 0 0 0-2.001 2v27a2.004 2.004 0 0 0 2 2h13a2.002 2.002 0 0 0 2-2v-27a2.002 2.002 0 0 0-2-2zm-4.16 1l-.281 1h-4.168l-.25-1h4.699zm5.16 28a1.003 1.003 0 0 1-1 1h-13a1.003 1.003 0 0 1-1-1v-27a1.003 1.003 0 0 1 1-1h3.109l.406 1.621a.5.5 0 0 0 .485.379h4.937c.109 0 .215-.036.302-.101s.15-.158.179-.263l.46-1.636h3.121a1.003 1.003 0 0 1 1 1v27z"/><path fill="var(--color2, #bb3800)" d="M13.5 28.5H10a.498.498 0 0 0-.5.5.5.5 0 0 0 .5.5h3.5a.498.498 0 0 0 .5-.5.5.5 0 0 0-.5-.5zm2 0H15a.498.498 0 0 0-.5.5.5.5 0 0 0 .5.5h.5a.498.498 0 0 0 .5-.5.5.5 0 0 0-.5-.5zm2.257-15.429a.502.502 0 0 0-.686.17l-3 5a.503.503 0 0 0 .172.686.503.503 0 0 0 .686-.172l3-5a.502.502 0 0 0-.17-.686zm1.633.116a.488.488 0 0 0-.335-.185.5.5 0 0 0-.446.81l1.75 2.187-1.75 2.187a.496.496 0 0 0 .078.703.496.496 0 0 0 .703-.078l2-2.5a.5.5 0 0 0 0-.624l-2-2.5zm-6.781 5.626a.497.497 0 0 0 .703.077.5.5 0 0 0 .078-.703L11.64 16l1.75-2.187a.494.494 0 0 0 .048-.553.502.502 0 0 0-.679-.197.5.5 0 0 0-.149.126l-2 2.5a.5.5 0 0 0 0 .624l2 2.5z"/></symbol><symbol id="icon-immersive" viewBox="0 0 32 32"><path fill="var(--color3, #00329b)" d="M15.333 16a.667.667 0 0 1-.667-.667V8.666c0-.368.299-.667.667-.667h2c1.471 0 2.667 1.196 2.667 2.667s-1.196 2.667-2.667 2.667H16v2a.667.667 0 0 1-.667.667zM16 12h1.333c.736 0 1.333-.599 1.333-1.333s-.597-1.333-1.333-1.333H16v2.667z"/><path fill="var(--color3, #00329b)" d="M19.333 16a.667.667 0 0 1-.472-.195l-2.667-2.667a.668.668 0 0 1 .943-.943l2.667 2.667A.668.668 0 0 1 19.333 16zm-10 0a.668.668 0 0 1-.639-.475l-2-6.667a.666.666 0 1 1 1.278-.384l1.361 4.539 1.361-4.537a.667.667 0 0 1 1.276.384l-2 6.667a.665.665 0 0 1-.637.473zm15.334-4c-1.103 0-2-.897-2-2s.897-2 2-2 2 .897 2 2-.897 2-2 2zm0-2.667a.668.668 0 0 0 0 1.334.668.668 0 0 0 0-1.334z"/><path fill="var(--color3, #00329b)" d="M28.667 22.667h-8.44a.669.669 0 0 1-.633-.456l-.585-1.76a.677.677 0 0 0-.635-.451h-4.747a.683.683 0 0 0-.639.461l-.583 1.751a.667.667 0 0 1-.632.455h-8.44A3.337 3.337 0 0 1 0 19.334v-12a3.337 3.337 0 0 1 3.333-3.333h25.333a3.337 3.337 0 0 1 3.333 3.333v12a3.337 3.337 0 0 1-3.333 3.333zm-7.96-1.334h7.96c1.103 0 2-.897 2-2v-12c0-1.103-.897-2-2-2H3.334c-1.103 0-2 .897-2 2v12c0 1.103.897 2 2 2h7.96l.433-1.304a2.02 2.02 0 0 1 1.9-1.363h4.748c.851 0 1.612.544 1.896 1.353l.436 1.313z"/><path fill="var(--color3, #00329b)" d="M27.333 5.333a.667.667 0 0 1-.667-.667V3.333c0-1.103-.897-2-2-2H7.333c-1.103 0-2 .897-2 2v1.333a.667.667 0 0 1-1.334 0V3.333A3.337 3.337 0 0 1 7.332 0h17.333a3.337 3.337 0 0 1 3.333 3.333v1.333a.667.667 0 0 1-.667.667zM14.667 32a.667.667 0 0 1-.398-1.2l1.956-1.467-1.957-1.467a.667.667 0 0 1-.135-.933.667.667 0 0 1 .933-.133l2.667 2a.666.666 0 0 1 0 1.066l-2.667 2a.667.667 0 0 1-.399.133z"/><path fill="var(--color3, #00329b)" d="M16 30c-1.367 0-2.76-.051-4.14-.148C6.127 29.439 0 28.035 0 25.333c0-.281.073-.571.217-.859.165-.331.568-.463.896-.297s.461.565.297.895a.606.606 0 0 0-.077.261c0 .977 3.375 2.667 10.621 3.189 1.359.096 2.708.191 4.073.144.315 0 .617 0 .919-.012a.658.658 0 0 1 .695.639.666.666 0 0 1-.639.693c-.331.013-.66.013-1.003.013zm4.652-.2a.666.666 0 0 1-.054-1.332c6.869-.561 10.068-2.203 10.068-3.135a.62.62 0 0 0-.077-.261.667.667 0 1 1 1.193-.598c.144.288.217.577.217.859 0 3.284-8.643 4.248-11.292 4.465l-.056.001z"/></symbol><symbol id="icon-seo_tag" viewBox="0 0 32 32"><path fill="var(--color4, #5fc400)" d="M30.759 15.185L17.066 1.492a5.057 5.057 0 0 0-3.6-1.491H2.91A2.912 2.912 0 0 0 .001 2.91v10.556c0 1.36.53 2.639 1.491 3.6l13.693 13.693c.789.789 1.881 1.241 2.997 1.241s2.208-.452 2.997-1.241l9.58-9.58C31.548 20.39 32 19.298 32 18.182s-.452-2.208-1.241-2.997zm-1.029 4.966l-9.58 9.58c-1.037 1.037-2.901 1.037-3.937 0L2.52 16.038a3.612 3.612 0 0 1-1.065-2.572V2.91c0-.802.653-1.455 1.455-1.455h10.556c.972 0 1.885.379 2.572 1.065l13.693 13.693c.518.518.815 1.236.815 1.969s-.297 1.45-.815 1.969z"/><path fill="var(--color4, #5fc400)" d="M5.818 2.909c-1.604 0-2.909 1.305-2.909 2.909s1.305 2.909 2.909 2.909c1.604 0 2.909-1.305 2.909-2.909S7.422 2.909 5.818 2.909zm0 4.364c-.802 0-1.455-.653-1.455-1.455s.653-1.455 1.455-1.455 1.455.653 1.455 1.455-.653 1.455-1.455 1.455zm6.74 7.343a2.184 2.184 0 0 0 0-3.086.728.728 0 0 1 0-1.028l.516-.515a.744.744 0 0 1 1.028 0 .725.725 0 0 1 0 1.027.729.729 0 0 0 1.028 1.03c.412-.412.639-.96.639-1.543s-.227-1.131-.639-1.543c-.824-.825-2.263-.822-3.085-.001l-.516.515a2.186 2.186 0 0 0 .001 3.085.73.73 0 0 1 0 1.029l-.515.514a.744.744 0 0 1-1.028 0 .725.725 0 0 1 0-1.027.729.729 0 0 0-1.028-1.03c-.412.412-.639.96-.639 1.543s.227 1.131.639 1.543.96.639 1.543.639 1.131-.227 1.543-.639l.514-.514zm4.629 2.571a.727.727 0 0 0 0-1.028l-1.028-1.028 1.543-1.543 1.543 1.543a.727.727 0 1 0 1.028-1.028l-2.058-2.057a.727.727 0 0 0-1.028 0l-5.142 5.142a.727.727 0 0 0 0 1.028l2.057 2.058a.725.725 0 0 0 1.028 0 .727.727 0 0 0 0-1.028l-1.543-1.543 1.543-1.543 1.028 1.028a.725.725 0 0 0 1.028 0zm3.086-.001v.001l-3.087 3.086a2.186 2.186 0 0 0 .001 3.085c.425.425.984.639 1.543.639s1.118-.213 1.543-.639l3.085-3.085a2.185 2.185 0 0 0 0-3.087 2.187 2.187 0 0 0-3.085 0zm2.056 2.058l-3.085 3.085a.727.727 0 0 1-1.029-1.028l3.086-3.085a.728.728 0 0 1 1.028-.001.73.73 0 0 1 0 1.029z"/></symbol><symbol id="icon-website-content" viewBox="0 0 32 32"><path fill="var(--color5, #4628a4)" d="M3 2.5h1v1H3v-1zm2 0h1v1H5v-1zm2 0h1v1H7v-1zM3.5 15h11a.498.498 0 0 0 .5-.5v-8a.498.498 0 0 0-.5-.5h-11a.498.498 0 0 0-.5.5v8a.498.498 0 0 0 .5.5zM4 7h10v7H4V7zm-.5 17.5h11a.498.498 0 0 0 .5-.5v-7.5a.498.498 0 0 0-.5-.5h-11a.498.498 0 0 0-.5.5V24a.498.498 0 0 0 .5.5zM4 17h10v6.5H4V17zm19.5 7.5h1v1h-1v-1zm4 0h1v1h-1v-1zM26 28a.997.997 0 0 1-1-1h-1a2 2 0 0 0 4 0h-1a.997.997 0 0 1-1 1z"/><path fill="var(--color5, #4628a4)" d="M11.25 10.066l-3.5-2a.498.498 0 0 0-.75.433v4a.498.498 0 0 0 .75.433l3.5-2a.505.505 0 0 0 .252-.434.505.505 0 0 0-.252-.434zM8 11.638V9.362L9.992 10.5 8 11.638zM26.5 15.5a.498.498 0 0 0 .384-.82l-2.5-3a.505.505 0 0 0-.566-.148.475.475 0 0 0-.172.114l-.733.734-1.034-1.205a.512.512 0 0 0-.758 0l-3 3.5a.499.499 0 0 0 .38.825h8zm-6.913-1l1.913-2.232 1.913 2.232h-3.826zm4.38-1.759l1.466 1.759h-.703l-1.165-1.359.401-.401z"/><path fill="var(--color5, #4628a4)" d="M30.5 1h-29a.498.498 0 0 0-.5.5V26a.498.498 0 0 0 .5.5h19.525A5 5 0 0 0 31 26V1.5a.498.498 0 0 0-.5-.5zM26 30a4.004 4.004 0 0 1-3.695-2.469A4 4 0 1 1 30 26a4.002 4.002 0 0 1-4 4zm-4.323-6.5H17V7h11v14.421a4.982 4.982 0 0 0-6.324 2.08zM30 23.013a5.028 5.028 0 0 0-1-1.003V6.5a.498.498 0 0 0-.5-.5h-12a.498.498 0 0 0-.5.5V24a.498.498 0 0 0 .5.5h4.731a4.947 4.947 0 0 0-.205 1H2.001V5h28v18.013zM30 4H2V2h28v2z"/><path fill="var(--color5, #4628a4)" d="M5 18h8v1H5v-1zm0 2h8v1H5v-1z"/></symbol><symbol id="icon-figure" viewBox="0 0 10 32"><path fill="var(--color1, #08d3bb)" d="M8.817 9.713C7.643 5.625 4.197 2.488.087.116v31.719c6.627-5.809 11.292-13.201 8.73-22.123z"/></symbol><symbol id="icon-figure_big" viewBox="0 0 4 32"><path fill="var(--color2, #1090cb)" d="M1.588 16.366c2.267 3.98.411 9.449 2.874 15.634V.011c-.459.289-.899.63-1.313 1.028C-.819 4.848-.68 12.385 1.588 16.366z"/></symbol></defs></svg>