<svg aria-hidden="true" style="position: absolute; width: 0; height: 0; overflow: hidden;" version="1.1" xmlns="http://www.w3.org/2000/svg" xmlns:xlink="http://www.w3.org/1999/xlink">
<defs>
<symbol id="icon-in" viewBox="0 0 32 32">
<path d="M31.992 32v-0.001h0.008v-11.736c0-5.741-1.236-10.164-7.948-10.164-3.227 0-5.392 1.771-6.276 3.449h-0.093v-2.913h-6.364v21.364h6.627v-10.579c0-2.785 0.528-5.479 3.977-5.479 3.399 0 3.449 3.179 3.449 5.657v10.401h6.62z"></path>
<path d="M0.528 10.636h6.635v21.364h-6.635v-21.364z"></path>
<path d="M3.843 0c-2.121 0-3.843 1.721-3.843 3.843s1.721 3.879 3.843 3.879c2.121 0 3.843-1.757 3.843-3.879-0.001-2.121-1.723-3.843-3.843-3.843v0z"></path>
</symbol>
<symbol id="icon-twitter" viewBox="0 0 32 32">
<path d="M32 6.078c-1.19 0.522-2.458 0.868-3.78 1.036 1.36-0.812 2.398-2.088 2.886-3.626-1.268 0.756-2.668 1.29-4.16 1.588-1.204-1.282-2.92-2.076-4.792-2.076-3.632 0-6.556 2.948-6.556 6.562 0 0.52 0.044 1.020 0.152 1.496-5.454-0.266-10.28-2.88-13.522-6.862-0.566 0.982-0.898 2.106-0.898 3.316 0 2.272 1.17 4.286 2.914 5.452-1.054-0.020-2.088-0.326-2.964-0.808 0 0.020 0 0.046 0 0.072 0 3.188 2.274 5.836 5.256 6.446-0.534 0.146-1.116 0.216-1.72 0.216-0.42 0-0.844-0.024-1.242-0.112 0.85 2.598 3.262 4.508 6.13 4.57-2.232 1.746-5.066 2.798-8.134 2.798-0.538 0-1.054-0.024-1.57-0.090 2.906 1.874 6.35 2.944 10.064 2.944 12.072 0 18.672-10 18.672-18.668 0-0.29-0.010-0.57-0.024-0.848 1.302-0.924 2.396-2.078 3.288-3.406z"></path>
</symbol>
<symbol id="icon-instagram" viewBox="0 0 32 32">
<path d="M23.338 0h-14.676c-4.776 0-8.662 3.886-8.662 8.662v14.676c0 4.776 3.886 8.662 8.662 8.662h14.676c4.776 0 8.662-3.886 8.662-8.662v-14.676c0-4.776-3.886-8.662-8.662-8.662v0zM30.124 23.338c0 3.742-3.044 6.786-6.786 6.786h-14.676c-3.742 0-6.786-3.044-6.786-6.786v-14.676c0-3.742 3.044-6.786 6.786-6.786h14.676c3.742 0 6.786 3.044 6.786 6.786v14.676z"></path>
<path d="M16 7.25c-4.825 0-8.75 3.925-8.75 8.75s3.925 8.75 8.75 8.75c4.825 0 8.75-3.925 8.75-8.75s-3.925-8.75-8.75-8.75zM16 22.873c-3.79 0-6.874-3.084-6.874-6.874s3.084-6.874 6.874-6.874c3.79 0 6.874 3.084 6.874 6.874s-3.084 6.874-6.874 6.874z"></path>
<path d="M24.959 4.143c-1.426 0-2.585 1.16-2.585 2.585s1.16 2.586 2.585 2.586c1.426 0 2.586-1.16 2.586-2.586s-1.16-2.585-2.586-2.585zM24.959 7.438c-0.391 0-0.709-0.318-0.709-0.709s0.318-0.709 0.709-0.709c0.391 0 0.71 0.318 0.71 0.709s-0.319 0.709-0.71 0.709z"></path>
</symbol>
<symbol id="icon-facebook" viewBox="0 0 32 32">
<path d="M21.329 5.313h2.921v-5.088c-0.504-0.069-2.237-0.225-4.256-0.225-4.212 0-7.097 2.649-7.097 7.519v4.481h-4.648v5.688h4.648v14.312h5.699v-14.311h4.46l0.708-5.688h-5.169v-3.919c0.001-1.644 0.444-2.769 2.735-2.769z"></path>
</symbol>
<symbol id="icon-happy" viewBox="0 0 32 32">
<path fill="#fff" style="fill: var(--color1, #fff)" d="M16.49 6.395c-7.059 0-12.802 5.743-12.802 12.803s5.743 12.802 12.802 12.802c7.059 0 12.802-5.743 12.802-12.802s-5.743-12.803-12.802-12.803zM16.49 30.125c-6.025 0-10.927-4.902-10.927-10.927s4.902-10.928 10.927-10.928c6.025 0 10.927 4.902 10.927 10.928s-4.902 10.927-10.927 10.927z"></path>
<path fill="#fff" style="fill: var(--color1, #fff)" d="M22.081 21.578c-0.393-0.337-0.985-0.292-1.322 0.101-1.071 1.248-2.626 1.964-4.269 1.964s-3.198-0.716-4.269-1.964c-0.337-0.393-0.929-0.438-1.322-0.101s-0.438 0.929-0.101 1.322c1.427 1.664 3.502 2.618 5.692 2.618s4.265-0.954 5.692-2.618c0.337-0.393 0.292-0.985-0.101-1.322z"></path>
<path fill="#fff" style="fill: var(--color1, #fff)" d="M11.285 17.723c0.518 0 0.938-0.42 0.938-0.937 0-0.301 0.245-0.545 0.545-0.545s0.545 0.245 0.545 0.545c0 0.518 0.42 0.937 0.937 0.937s0.937-0.42 0.937-0.937c0-1.334-1.086-2.42-2.42-2.42s-2.42 1.086-2.42 2.42c0 0.518 0.42 0.937 0.938 0.937z"></path>
<path fill="#fff" style="fill: var(--color1, #fff)" d="M20.212 14.365c-1.335 0-2.42 1.086-2.42 2.42 0 0.518 0.42 0.938 0.937 0.938s0.937-0.42 0.937-0.938c0-0.301 0.245-0.545 0.545-0.545s0.545 0.245 0.545 0.545c0 0.518 0.42 0.938 0.937 0.938s0.937-0.42 0.937-0.938c0-1.335-1.086-2.42-2.42-2.42z"></path>
<path fill="#fff" style="fill: var(--color1, #fff)" d="M24.214 5.266h1.368c0.518 0 0.937-0.42 0.937-0.938s-0.42-0.938-0.937-0.938h-1.368c-0.518 0-0.937 0.42-0.937 0.938s0.42 0.938 0.937 0.938z"></path>
<path fill="#fff" style="fill: var(--color1, #fff)" d="M27.638 8.658c0.518 0 0.937-0.42 0.937-0.938v-1.368c0-0.518-0.42-0.938-0.937-0.938s-0.938 0.42-0.938 0.938v1.368c0 0.518 0.42 0.938 0.938 0.938z"></path>
<path fill="#fff" style="fill: var(--color1, #fff)" d="M31.062 3.391h-1.368c-0.518 0-0.938 0.42-0.938 0.938s0.42 0.938 0.938 0.938h1.368c0.518 0 0.937-0.42 0.937-0.938s-0.42-0.938-0.937-0.938z"></path>
<path fill="#fff" style="fill: var(--color1, #fff)" d="M27.638 3.243c0.518 0 0.937-0.42 0.937-0.938v-1.368c0-0.518-0.42-0.938-0.937-0.938s-0.938 0.42-0.938 0.938v1.368c0 0.518 0.42 0.938 0.938 0.938z"></path>
<path fill="#fff" style="fill: var(--color1, #fff)" d="M2.029 4.641h-1.092c-0.518 0-0.938 0.42-0.938 0.938s0.42 0.938 0.938 0.938h1.092c0.518 0 0.938-0.42 0.938-0.938s-0.42-0.938-0.938-0.938z"></path>
<path fill="#fff" style="fill: var(--color1, #fff)" d="M4.921 8.599v-1.092c0-0.518-0.42-0.938-0.938-0.938s-0.938 0.42-0.938 0.938v1.092c0 0.518 0.42 0.938 0.938 0.938s0.938-0.42 0.938-0.938z"></path>
<path fill="#fff" style="fill: var(--color1, #fff)" d="M5.938 6.516h1.092c0.518 0 0.938-0.42 0.938-0.938s-0.42-0.938-0.938-0.938h-1.092c-0.518 0-0.938 0.42-0.938 0.938s0.42 0.938 0.938 0.938z"></path>
<path fill="#fff" style="fill: var(--color1, #fff)" d="M3.984 4.588c0.518 0 0.938-0.42 0.938-0.938v-1.092c0-0.518-0.42-0.938-0.938-0.938s-0.938 0.42-0.938 0.938v1.092c0 0.518 0.42 0.938 0.938 0.938z"></path>
</symbol>
<symbol id="icon-coding" viewBox="0 0 32 32">
<path fill="#bb3800" style="fill: var(--color2, #bb3800)" d="M22.5 0.5h-13c-0.53 0.001-1.039 0.212-1.414 0.587s-0.586 0.883-0.587 1.413v27c0.001 0.53 0.212 1.038 0.587 1.413s0.883 0.586 1.413 0.587h13c0.53-0.001 1.039-0.212 1.413-0.587s0.586-0.883 0.587-1.413v-27c-0.001-0.53-0.212-1.039-0.587-1.413s-0.883-0.586-1.413-0.587zM18.34 1.5l-0.281 1h-4.168l-0.25-1h4.699zM23.5 29.5c-0 0.265-0.106 0.519-0.293 0.707s-0.442 0.293-0.707 0.293h-13c-0.265-0-0.519-0.106-0.707-0.293s-0.293-0.442-0.293-0.707v-27c0-0.265 0.106-0.519 0.293-0.707s0.442-0.293 0.707-0.293h3.109l0.406 1.621c0.027 0.108 0.089 0.204 0.177 0.273s0.196 0.106 0.308 0.106h4.937c0.109 0 0.215-0.036 0.302-0.101s0.15-0.158 0.179-0.263l0.46-1.636h3.121c0.265 0 0.519 0.106 0.707 0.293s0.293 0.442 0.293 0.707v27z"></path>
<path fill="#bb3800" style="fill: var(--color2, #bb3800)" d="M13.5 28.5h-3.5c-0.133 0-0.26 0.053-0.354 0.146s-0.146 0.221-0.146 0.354 0.053 0.26 0.146 0.354c0.094 0.094 0.221 0.146 0.354 0.146h3.5c0.133 0 0.26-0.053 0.354-0.146s0.146-0.221 0.146-0.354-0.053-0.26-0.146-0.354c-0.094-0.094-0.221-0.146-0.354-0.146z"></path>
<path fill="#bb3800" style="fill: var(--color2, #bb3800)" d="M15.5 28.5h-0.5c-0.133 0-0.26 0.053-0.354 0.146s-0.146 0.221-0.146 0.354 0.053 0.26 0.146 0.354c0.094 0.094 0.221 0.146 0.354 0.146h0.5c0.133 0 0.26-0.053 0.354-0.146s0.146-0.221 0.146-0.354-0.053-0.26-0.146-0.354c-0.094-0.094-0.221-0.146-0.354-0.146z"></path>
<path fill="#bb3800" style="fill: var(--color2, #bb3800)" d="M17.757 13.071c-0.056-0.034-0.119-0.056-0.184-0.066s-0.131-0.007-0.195 0.009c-0.064 0.016-0.124 0.044-0.176 0.083s-0.097 0.088-0.131 0.144l-3 5c-0.068 0.114-0.088 0.25-0.056 0.379s0.114 0.239 0.228 0.307 0.25 0.088 0.379 0.056c0.129-0.032 0.239-0.114 0.307-0.228l3-5c0.034-0.056 0.056-0.119 0.066-0.184s0.006-0.131-0.009-0.195c-0.016-0.064-0.044-0.124-0.083-0.176s-0.088-0.097-0.144-0.131z"></path>
<path fill="#bb3800" style="fill: var(--color2, #bb3800)" d="M19.39 13.187c-0.041-0.051-0.092-0.094-0.149-0.126s-0.121-0.052-0.186-0.059c-0.132-0.015-0.264 0.024-0.368 0.107s-0.17 0.203-0.185 0.335c-0.015 0.132 0.024 0.264 0.107 0.368l1.75 2.187-1.75 2.187c-0.083 0.104-0.121 0.236-0.107 0.368s0.081 0.252 0.185 0.335c0.104 0.083 0.236 0.121 0.368 0.107s0.252-0.081 0.335-0.185l2-2.5c0.071-0.089 0.11-0.199 0.11-0.312s-0.039-0.224-0.11-0.312l-2-2.5z"></path>
<path fill="#bb3800" style="fill: var(--color2, #bb3800)" d="M12.609 18.813c0.083 0.104 0.204 0.17 0.335 0.184s0.264-0.024 0.368-0.107c0.104-0.083 0.17-0.203 0.185-0.335s-0.024-0.264-0.107-0.368l-1.75-2.187 1.75-2.187c0.041-0.051 0.072-0.11 0.090-0.173s0.024-0.129 0.017-0.194c-0.007-0.065-0.027-0.128-0.059-0.186s-0.074-0.108-0.126-0.149-0.11-0.072-0.173-0.090c-0.063-0.018-0.129-0.024-0.194-0.017s-0.128 0.027-0.186 0.059c-0.057 0.032-0.108 0.074-0.149 0.126l-2 2.5c-0.071 0.089-0.11 0.199-0.11 0.312s0.039 0.224 0.11 0.312l2 2.5z"></path>
</symbol>
<symbol id="icon-immersive" viewBox="0 0 32 32">
<path fill="#00329b" style="fill: var(--color3, #00329b)" d="M15.333 16c-0.368 0-0.667-0.299-0.667-0.667v-6.667c0-0.368 0.299-0.667 0.667-0.667h2c1.471 0 2.667 1.196 2.667 2.667s-1.196 2.667-2.667 2.667h-1.333v2c0 0.368-0.299 0.667-0.667 0.667zM16 12h1.333c0.736 0 1.333-0.599 1.333-1.333s-0.597-1.333-1.333-1.333h-1.333v2.667z"></path>
<path fill="#00329b" style="fill: var(--color3, #00329b)" d="M19.333 16c-0.171 0-0.341-0.065-0.472-0.195l-2.667-2.667c-0.26-0.26-0.26-0.683 0-0.943s0.683-0.26 0.943 0l2.667 2.667c0.26 0.26 0.26 0.683 0 0.943-0.129 0.129-0.3 0.195-0.471 0.195z"></path>
<path fill="#00329b" style="fill: var(--color3, #00329b)" d="M9.333 16c-0.295 0-0.553-0.193-0.639-0.475l-2-6.667c-0.107-0.352 0.093-0.724 0.447-0.831 0.352-0.104 0.724 0.095 0.831 0.447l1.361 4.539 1.361-4.537c0.105-0.353 0.48-0.551 0.829-0.447 0.353 0.107 0.553 0.477 0.447 0.831l-2 6.667c-0.084 0.28-0.343 0.473-0.637 0.473z"></path>
<path fill="#00329b" style="fill: var(--color3, #00329b)" d="M24.667 12c-1.103 0-2-0.897-2-2s0.897-2 2-2c1.103 0 2 0.897 2 2s-0.897 2-2 2zM24.667 9.333c-0.367 0-0.667 0.299-0.667 0.667s0.3 0.667 0.667 0.667c0.367 0 0.667-0.299 0.667-0.667s-0.3-0.667-0.667-0.667z"></path>
<path fill="#00329b" style="fill: var(--color3, #00329b)" d="M28.667 22.667h-8.44c-0.287 0-0.541-0.184-0.633-0.456l-0.585-1.76c-0.092-0.265-0.349-0.451-0.635-0.451h-4.747c-0.285 0-0.541 0.185-0.639 0.461l-0.583 1.751c-0.091 0.271-0.345 0.455-0.632 0.455h-8.44c-1.839 0-3.333-1.496-3.333-3.333v-12c0-1.837 1.495-3.333 3.333-3.333h25.333c1.839 0 3.333 1.496 3.333 3.333v12c0 1.837-1.495 3.333-3.333 3.333zM20.707 21.333h7.96c1.103 0 2-0.897 2-2v-12c0-1.103-0.897-2-2-2h-25.333c-1.103 0-2 0.897-2 2v12c0 1.103 0.897 2 2 2h7.96l0.433-1.304c0.288-0.819 1.049-1.363 1.9-1.363h4.748c0.851 0 1.612 0.544 1.896 1.353l0.436 1.313z"></path>
<path fill="#00329b" style="fill: var(--color3, #00329b)" d="M27.333 5.333c-0.368 0-0.667-0.299-0.667-0.667v-1.333c0-1.103-0.897-2-2-2h-17.333c-1.103 0-2 0.897-2 2v1.333c0 0.368-0.299 0.667-0.667 0.667s-0.667-0.299-0.667-0.667v-1.333c0-1.837 1.495-3.333 3.333-3.333h17.333c1.839 0 3.333 1.496 3.333 3.333v1.333c0 0.368-0.299 0.667-0.667 0.667z"></path>
<path fill="#00329b" style="fill: var(--color3, #00329b)" d="M14.667 32c-0.201 0-0.403-0.092-0.533-0.267-0.22-0.295-0.16-0.712 0.135-0.933l1.956-1.467-1.957-1.467c-0.295-0.221-0.355-0.639-0.135-0.933 0.223-0.296 0.64-0.352 0.933-0.133l2.667 2c0.168 0.125 0.267 0.324 0.267 0.533s-0.099 0.408-0.267 0.533l-2.667 2c-0.119 0.089-0.26 0.133-0.399 0.133z"></path>
<path fill="#00329b" style="fill: var(--color3, #00329b)" d="M16 30c-1.367 0-2.76-0.051-4.14-0.148-5.733-0.413-11.86-1.817-11.86-4.519 0-0.281 0.073-0.571 0.217-0.859 0.165-0.331 0.568-0.463 0.896-0.297s0.461 0.565 0.297 0.895c-0.051 0.101-0.077 0.189-0.077 0.261 0 0.977 3.375 2.667 10.621 3.189 1.359 0.096 2.708 0.191 4.073 0.144 0.315 0 0.617 0 0.919-0.012 0.385-0.016 0.679 0.271 0.695 0.639 0.015 0.368-0.272 0.679-0.639 0.693-0.331 0.013-0.66 0.013-1.003 0.013z"></path>
<path fill="#00329b" style="fill: var(--color3, #00329b)" d="M20.652 29.8c-0.343 0-0.635-0.264-0.663-0.612-0.029-0.367 0.243-0.689 0.609-0.72 6.869-0.561 10.068-2.203 10.068-3.135 0-0.072-0.027-0.16-0.077-0.261-0.164-0.329-0.031-0.729 0.297-0.895 0.327-0.167 0.729-0.033 0.896 0.297 0.144 0.288 0.217 0.577 0.217 0.859 0 3.284-8.643 4.248-11.292 4.465-0.017 0.001-0.037 0.001-0.056 0.001z"></path>
</symbol>
<symbol id="icon-seo_tag" viewBox="0 0 32 32">
<path fill="#5fc400" style="fill: var(--color4, #5fc400)" d="M30.759 15.185l-13.693-13.693c-0.962-0.962-2.24-1.491-3.6-1.491h-10.556c-1.604 0-2.909 1.305-2.909 2.909v10.556c0 1.36 0.53 2.639 1.491 3.6l13.693 13.693c0.789 0.789 1.881 1.241 2.997 1.241s2.208-0.452 2.997-1.241l9.58-9.58c0.789-0.789 1.241-1.881 1.241-2.997s-0.452-2.208-1.241-2.997zM29.73 20.151l-9.58 9.58c-1.037 1.037-2.901 1.037-3.937 0l-13.693-13.693c-0.687-0.687-1.065-1.6-1.065-2.572v-10.556c0-0.802 0.653-1.455 1.455-1.455h10.556c0.972 0 1.885 0.379 2.572 1.065l13.693 13.693c0.518 0.518 0.815 1.236 0.815 1.969s-0.297 1.45-0.815 1.969z"></path>
<path fill="#5fc400" style="fill: var(--color4, #5fc400)" d="M5.818 2.909c-1.604 0-2.909 1.305-2.909 2.909s1.305 2.909 2.909 2.909c1.604 0 2.909-1.305 2.909-2.909s-1.305-2.909-2.909-2.909zM5.818 7.273c-0.802 0-1.455-0.653-1.455-1.455s0.653-1.455 1.455-1.455 1.455 0.653 1.455 1.455c0 0.802-0.653 1.455-1.455 1.455z"></path>
<path fill="#5fc400" style="fill: var(--color4, #5fc400)" d="M12.558 14.616c0.851-0.851 0.851-2.235 0-3.086-0.283-0.283-0.283-0.745 0-1.028l0.516-0.515c0.272-0.275 0.751-0.275 1.028 0 0.137 0.138 0.213 0.32 0.213 0.514s-0.075 0.376-0.213 0.513c-0.284 0.284-0.284 0.744-0.001 1.029s0.745 0.283 1.029 0.001c0.412-0.412 0.639-0.96 0.639-1.543s-0.227-1.131-0.639-1.543c-0.824-0.825-2.263-0.822-3.085-0.001l-0.516 0.515c-0.849 0.852-0.849 2.235 0.001 3.085 0.283 0.284 0.283 0.745 0 1.029l-0.515 0.514c-0.273 0.276-0.751 0.274-1.028 0-0.137-0.138-0.213-0.32-0.213-0.514s0.075-0.377 0.213-0.513c0.284-0.284 0.284-0.744 0.001-1.029s-0.745-0.283-1.029-0.001c-0.412 0.412-0.639 0.96-0.639 1.543s0.227 1.131 0.639 1.543 0.96 0.639 1.543 0.639c0.583 0 1.131-0.227 1.543-0.639l0.514-0.514z"></path>
<path fill="#5fc400" style="fill: var(--color4, #5fc400)" d="M17.187 17.187c0.284-0.284 0.284-0.744 0-1.028l-1.028-1.028 1.543-1.543 1.543 1.543c0.284 0.284 0.744 0.284 1.028 0s0.284-0.744 0-1.028l-2.058-2.057c-0.284-0.284-0.744-0.284-1.028 0l-5.142 5.142c-0.284 0.284-0.284 0.744 0 1.028l2.057 2.058c0.142 0.142 0.328 0.213 0.514 0.213s0.372-0.071 0.514-0.213c0.284-0.284 0.284-0.744 0-1.028l-1.543-1.543 1.543-1.543 1.028 1.028c0.142 0.142 0.328 0.213 0.514 0.213s0.372-0.071 0.514-0.213z"></path>
<path fill="#5fc400" style="fill: var(--color4, #5fc400)" d="M20.273 17.186c0 0.001 0 0.001 0 0.001l-3.087 3.086c-0.849 0.851-0.849 2.234 0.001 3.085 0.425 0.425 0.984 0.639 1.543 0.639s1.118-0.213 1.543-0.639l3.085-3.085c0.851-0.851 0.851-2.235 0-3.087-0.851-0.849-2.234-0.849-3.085 0zM22.329 19.244l-3.085 3.085c-0.283 0.283-0.745 0.285-1.028 0-0.283-0.283-0.283-0.745-0.001-1.028l3.086-3.085c0.283-0.284 0.746-0.283 1.028-0.001 0.283 0.284 0.283 0.745 0 1.029z"></path>
</symbol>
<symbol id="icon-website-content" viewBox="0 0 32 32">
<path fill="#4628a4" style="fill: var(--color5, #4628a4)" d="M3 2.5h1v1h-1v-1z"></path>
<path fill="#4628a4" style="fill: var(--color5, #4628a4)" d="M5 2.5h1v1h-1v-1z"></path>
<path fill="#4628a4" style="fill: var(--color5, #4628a4)" d="M7 2.5h1v1h-1v-1z"></path>
<path fill="#4628a4" style="fill: var(--color5, #4628a4)" d="M3.5 15h11c0.133 0 0.26-0.053 0.354-0.146s0.146-0.221 0.146-0.354v-8c0-0.133-0.053-0.26-0.146-0.354s-0.221-0.146-0.354-0.146h-11c-0.133 0-0.26 0.053-0.354 0.146s-0.146 0.221-0.146 0.354v8c0 0.133 0.053 0.26 0.146 0.354s0.221 0.146 0.354 0.146zM4 7h10v7h-10v-7z"></path>
<path fill="#4628a4" style="fill: var(--color5, #4628a4)" d="M3.5 24.5h11c0.133 0 0.26-0.053 0.354-0.146s0.146-0.221 0.146-0.354v-7.5c0-0.133-0.053-0.26-0.146-0.354s-0.221-0.146-0.354-0.146h-11c-0.133 0-0.26 0.053-0.354 0.146s-0.146 0.221-0.146 0.354v7.5c0 0.133 0.053 0.26 0.146 0.354s0.221 0.146 0.354 0.146zM4 17h10v6.5h-10v-6.5z"></path>
<path fill="#4628a4" style="fill: var(--color5, #4628a4)" d="M23.5 24.5h1v1h-1v-1z"></path>
<path fill="#4628a4" style="fill: var(--color5, #4628a4)" d="M27.5 24.5h1v1h-1v-1z"></path>
<path fill="#4628a4" style="fill: var(--color5, #4628a4)" d="M26 28c-0.265 0-0.52-0.105-0.707-0.293s-0.293-0.442-0.293-0.707h-1c0 0.53 0.211 1.039 0.586 1.414s0.884 0.586 1.414 0.586 1.039-0.211 1.414-0.586c0.375-0.375 0.586-0.884 0.586-1.414h-1c0 0.265-0.105 0.52-0.293 0.707s-0.442 0.293-0.707 0.293z"></path>
<path fill="#4628a4" style="fill: var(--color5, #4628a4)" d="M11.25 10.066l-3.5-2c-0.076-0.044-0.162-0.067-0.25-0.067s-0.174 0.023-0.25 0.067-0.139 0.107-0.183 0.183c-0.044 0.076-0.067 0.162-0.067 0.25v4c-0 0.088 0.023 0.174 0.067 0.25s0.107 0.139 0.183 0.183 0.162 0.067 0.25 0.067c0.088 0 0.174-0.023 0.25-0.067l3.5-2c0.076-0.044 0.14-0.107 0.184-0.183s0.068-0.163 0.068-0.251-0.023-0.175-0.068-0.251c-0.044-0.076-0.108-0.139-0.184-0.183zM8 11.638v-2.276l1.992 1.138-1.992 1.138z"></path>
<path fill="#4628a4" style="fill: var(--color5, #4628a4)" d="M26.5 15.5c0.095 0 0.188-0.027 0.268-0.078s0.144-0.124 0.185-0.21c0.040-0.086 0.055-0.182 0.043-0.276s-0.051-0.183-0.112-0.256l-2.5-3c-0.044-0.053-0.1-0.097-0.162-0.128s-0.13-0.049-0.2-0.052c-0.070-0.004-0.139 0.007-0.204 0.032s-0.124 0.064-0.172 0.114l-0.733 0.734-1.034-1.205c-0.048-0.053-0.107-0.094-0.172-0.123s-0.136-0.043-0.207-0.043-0.142 0.015-0.207 0.043c-0.065 0.029-0.124 0.071-0.172 0.123l-3 3.5c-0.062 0.073-0.102 0.161-0.115 0.256s0.001 0.191 0.041 0.278c0.040 0.087 0.104 0.16 0.184 0.212s0.174 0.079 0.27 0.079h8zM19.587 14.5l1.913-2.232 1.913 2.232h-3.826zM23.967 12.741l1.466 1.759h-0.703l-1.165-1.359 0.401-0.401z"></path>
<path fill="#4628a4" style="fill: var(--color5, #4628a4)" d="M30.5 1h-29c-0.133 0-0.26 0.053-0.354 0.146s-0.146 0.221-0.146 0.354v24.5c0 0.133 0.053 0.26 0.146 0.354s0.221 0.146 0.354 0.146h19.525c0.129 1.275 0.744 2.453 1.716 3.288s2.228 1.266 3.509 1.201 2.487-0.618 3.371-1.546c0.884-0.929 1.377-2.161 1.379-3.443v-24.5c0-0.133-0.053-0.26-0.146-0.354s-0.221-0.146-0.354-0.146zM26 30c-0.791 0-1.564-0.235-2.222-0.674s-1.171-1.064-1.473-1.795c-0.303-0.731-0.382-1.535-0.228-2.311s0.535-1.489 1.095-2.048c0.559-0.559 1.272-0.94 2.048-1.095s1.58-0.075 2.311 0.228c0.731 0.303 1.356 0.815 1.795 1.473s0.674 1.431 0.674 2.222c-0.001 1.061-0.423 2.077-1.173 2.827s-1.767 1.172-2.827 1.173zM21.677 23.5h-4.677v-16.5h11v14.421c-1.125-0.494-2.393-0.555-3.56-0.171s-2.151 1.185-2.764 2.251zM30 23.013c-0.285-0.38-0.621-0.718-1-1.003v-15.51c0-0.133-0.053-0.26-0.146-0.354s-0.221-0.146-0.354-0.146h-12c-0.133 0-0.26 0.053-0.354 0.146s-0.146 0.221-0.146 0.354v17.5c0 0.133 0.053 0.26 0.146 0.354s0.221 0.146 0.354 0.146h4.731c-0.103 0.325-0.171 0.661-0.205 1h-19.025v-20.5h28v18.013zM30 4h-28v-2h28v2z"></path>
<path fill="#4628a4" style="fill: var(--color5, #4628a4)" d="M5 18h8v1h-8v-1z"></path>
<path fill="#4628a4" style="fill: var(--color5, #4628a4)" d="M5 20h8v1h-8v-1z"></path>
</symbol>
<symbol id="icon-figure" viewBox="0 0 10 32">
<path fill="#08d3bb" style="fill: var(--color1, #08d3bb)" d="M8.817 9.713c-1.174-4.088-4.62-7.225-8.73-9.597v31.719c6.627-5.809 11.292-13.201 8.73-22.123z"></path>
</symbol>
<symbol id="icon-figure_big" viewBox="0 0 4 32">
<path fill="#1090cb" style="fill: var(--color2, #1090cb)" d="M1.588 16.366c2.267 3.98 0.411 9.449 2.874 15.634v-31.989c-0.459 0.289-0.899 0.63-1.313 1.028-3.968 3.809-3.829 11.346-1.561 15.327z"></path>
</symbol>
</defs>
</svg>
